<svg xmlns="http://www.w3.org/2000/svg" viewBox="0 0 900 600" fill="none">
  <rect width="900" height="600" fill="#08090a"/>
  <rect x="0" y="0" width="900" height="44" fill="#0f1011"/>
  <rect x="24" y="12" width="70" height="18" rx="4" fill="#5e6ad2" opacity="0.5"/>
  <rect x="680" y="14" width="30" height="14" rx="7" fill="#ffffff" opacity="0.05"/>
  <rect x="720" y="14" width="40" height="14" rx="7" fill="#ffffff" opacity="0.05"/>
  <rect x="770" y="14" width="40" height="14" rx="7" fill="#ffffff" opacity="0.05"/>
  <rect x="820" y="10" width="60" height="24" rx="6" fill="#5e6ad2" opacity="0.6"/>
  <rect x="40" y="80" width="280" height="20" rx="4" fill="#f7f8f8" opacity="0.12"/>
  <rect x="40" y="110" width="400" height="12" rx="3" fill="#a1a1aa" opacity="0.07"/>
  <rect x="40" y="130" width="350" height="12" rx="3" fill="#a1a1aa" opacity="0.05"/>
  <rect x="40" y="170" width="100" height="32" rx="8" fill="#5e6ad2" opacity="0.7"/>
  <rect x="150" y="170" width="100" height="32" rx="8" fill="#ffffff" opacity="0.03" stroke="#ffffff" stroke-opacity="0.06"/>
  <rect x="40" y="240" width="820" height="1" fill="#ffffff" opacity="0.03"/>
  <rect x="40" y="270" width="240" height="140" rx="10" fill="#0f1011" stroke="#ffffff" stroke-opacity="0.04"/>
  <rect x="300" y="270" width="240" height="140" rx="10" fill="#0f1011" stroke="#ffffff" stroke-opacity="0.04"/>
  <rect x="560" y="270" width="300" height="140" rx="10" fill="#0f1011" stroke="#ffffff" stroke-opacity="0.04"/>
  <rect x="60" y="290" width="200" height="10" rx="3" fill="#f7f8f8" opacity="0.08"/>
  <rect x="60" y="310" width="180" height="8" rx="3" fill="#a1a1aa" opacity="0.05"/>
  <rect x="320" y="290" width="200" height="10" rx="3" fill="#f7f8f8" opacity="0.08"/>
  <rect x="320" y="310" width="160" height="8" rx="3" fill="#a1a1aa" opacity="0.05"/>
  <rect x="580" y="290" width="260" height="10" rx="3" fill="#f7f8f8" opacity="0.08"/>
  <rect x="580" y="310" width="220" height="8" rx="3" fill="#a1a1aa" opacity="0.05"/>
  <rect x="40" y="440" width="820" height="120" rx="10" fill="#0f1011" stroke="#ffffff" stroke-opacity="0.03"/>
  <rect x="60" y="460" width="160" height="10" rx="3" fill="#a1a1aa" opacity="0.06"/>
  <rect x="60" y="480" width="300" height="8" rx="3" fill="#ffffff" opacity="0.03"/>
  <rect x="60" y="500" width="260" height="8" rx="3" fill="#ffffff" opacity="0.02"/>
  <text x="450" y="570" text-anchor="middle" fill="#5e6ad2" font-family="system-ui" font-size="10" opacity="0.4">Homepage Hero</text>
</svg>