<svg xmlns="http://www.w3.org/2000/svg" viewBox="0 0 900 600" fill="none">
  <rect width="900" height="600" fill="#08090a"/>
  <rect x="0" y="0" width="900" height="48" fill="#0f1011"/>
  <rect x="24" y="14" width="80" height="20" rx="4" fill="#5e6ad2" opacity="0.6"/>
  <rect x="700" y="16" width="40" height="16" rx="8" fill="#ffffff" opacity="0.06"/>
  <rect x="750" y="16" width="50" height="16" rx="8" fill="#ffffff" opacity="0.06"/>
  <rect x="810" y="16" width="50" height="16" rx="8" fill="#ffffff" opacity="0.06"/>
  <rect x="50" y="100" width="340" height="24" rx="4" fill="#f7f8f8" opacity="0.12"/>
  <rect x="50" y="140" width="500" height="16" rx="4" fill="#a1a1aa" opacity="0.08"/>
  <rect x="50" y="164" width="420" height="16" rx="4" fill="#a1a1aa" opacity="0.06"/>
  <rect x="50" y="210" width="120" height="36" rx="8" fill="#5e6ad2" opacity="0.7"/>
  <rect x="180" y="210" width="120" height="36" rx="8" fill="#ffffff" opacity="0.04" stroke="#ffffff" stroke-opacity="0.08"/>
  <rect x="560" y="80" width="300" height="200" rx="12" fill="#0f1011" stroke="#ffffff" stroke-opacity="0.04"/>
  <rect x="580" y="100" width="260" height="14" rx="3" fill="#5e6ad2" opacity="0.2"/>
  <rect x="580" y="124" width="200" height="10" rx="3" fill="#ffffff" opacity="0.06"/>
  <rect x="580" y="144" width="240" height="10" rx="3" fill="#ffffff" opacity="0.04"/>
  <rect x="580" y="170" width="80" height="60" rx="6" fill="#5e6ad2" opacity="0.1"/>
  <rect x="670" y="170" width="80" height="60" rx="6" fill="#7170ff" opacity="0.08"/>
  <rect x="760" y="170" width="60" height="60" rx="6" fill="#a78bfa" opacity="0.06"/>
  <rect x="50" y="320" width="260" height="180" rx="12" fill="#0f1011" stroke="#ffffff" stroke-opacity="0.04"/>
  <rect x="340" y="320" width="260" height="180" rx="12" fill="#0f1011" stroke="#ffffff" stroke-opacity="0.04"/>
  <rect x="630" y="320" width="260" height="180" rx="12" fill="#0f1011" stroke="#ffffff" stroke-opacity="0.04"/>
  <rect x="70" y="350" width="140" height="12" rx="3" fill="#f7f8f8" opacity="0.1"/>
  <rect x="70" y="370" width="200" height="8" rx="3" fill="#a1a1aa" opacity="0.06"/>
  <rect x="70" y="390" width="180" height="8" rx="3" fill="#a1a1aa" opacity="0.04"/>
  <rect x="360" y="350" width="140" height="12" rx="3" fill="#f7f8f8" opacity="0.1"/>
  <rect x="360" y="370" width="200" height="8" rx="3" fill="#a1a1aa" opacity="0.06"/>
  <rect x="360" y="390" width="180" height="8" rx="3" fill="#a1a1aa" opacity="0.04"/>
  <rect x="650" y="350" width="140" height="12" rx="3" fill="#f7f8f8" opacity="0.1"/>
  <rect x="650" y="370" width="200" height="8" rx="3" fill="#a1a1aa" opacity="0.06"/>
  <rect x="650" y="390" width="180" height="8" rx="3" fill="#a1a1aa" opacity="0.04"/>
  <text x="450" y="556" text-anchor="middle" fill="#3a3d43" font-family="system-ui" font-size="11" letter-spacing="0.1em">WEBSITE RESMI STTPU</text>
</svg>