<svg width="1584" height="396" viewBox="0 0 1584 396" fill="none" xmlns="http://www.w3.org/2000/svg">
  <!-- SSH Software House — Cover Photo Light (Profile pic space on left) -->
  
  <rect width="1584" height="396" fill="#f8f8fc"/>
  
  <defs>
    <pattern id="grid" width="44" height="44" patternUnits="userSpaceOnUse">
      <path d="M 44 0 L 0 0 0 44" fill="none" stroke="rgba(94,106,210,0.08)" stroke-width="1"/>
    </pattern>
  </defs>
  <rect width="1584" height="396" fill="url(#grid)"/>
  
  <ellipse cx="700" cy="198" rx="350" ry="200" fill="url(#glow)" opacity="0.1"/>
  <defs>
    <radialGradient id="glow" cx="50%" cy="50%" r="50%">
      <stop offset="0%" stop-color="#5e6ad2"/>
      <stop offset="100%" stop-color="#f8f8fc" stop-opacity="0"/>
    </radialGradient>
  </defs>
  
  <line x1="420" y1="396" x2="420" y2="0" stroke="#5e6ad2" stroke-width="3" opacity="0.2"/>
  <line x1="428" y1="396" x2="428" y2="0" stroke="#5e6ad2" stroke-width="1" opacity="0.1"/>
  
  <g transform="translate(460, 120)">
    <rect width="156" height="156" rx="36" fill="#5e6ad2"/>
    <path
      d="M48 60C48 46.7 58.7 36 72 36H108C121.3 36 132 46.7 132 60C132 67.5 127.2 74 120 77.4V77.4C115.1 79.8 112 84.9 112 90.5V90.5C112 96.1 115.1 101.2 120 103.6V103.6C127.2 107 132 113.5 132 121C132 134.3 121.3 145 108 145H72C58.7 145 48 134.3 48 121"
      stroke="white"
      stroke-width="12"
      stroke-linecap="round"
    />
    <circle cx="72" cy="90.5" r="6" fill="white" opacity="0.7"/>
  </g>
  
  <text x="660" y="178" font-family="'Inter', 'SF Pro Display', -apple-system, sans-serif" font-size="96" font-weight="800" letter-spacing="-0.03em" fill="#1a1a2e">
    SSH
  </text>
  <text x="664" y="220" font-family="'Inter', 'SF Pro Display', -apple-system, sans-serif" font-size="22" font-weight="500" letter-spacing="0.2em" fill="rgba(26,26,46,0.4)">
    SOFTWARE HOUSE
  </text>
  <line x1="664" y1="238" x2="820" y2="238" stroke="#5e6ad2" stroke-width="2" opacity="0.4"/>
  <text x="664" y="270" font-family="'Inter', 'SF Pro Display', -apple-system, sans-serif" font-size="16" font-weight="400" letter-spacing="0.02em" fill="rgba(26,26,46,0.45)">
    Building Digital Solutions That Matter
  </text>
  
  <g opacity="0.1" fill="#5e6ad2">
    <circle cx="1300" cy="80" r="3"/><circle cx="1340" cy="80" r="3"/><circle cx="1380" cy="80" r="3"/><circle cx="1420" cy="80" r="3"/>
    <circle cx="1300" cy="120" r="3"/><circle cx="1340" cy="120" r="3"/><circle cx="1380" cy="120" r="3"/><circle cx="1420" cy="120" r="3"/>
    <circle cx="1300" cy="160" r="3"/><circle cx="1340" cy="160" r="3"/><circle cx="1380" cy="160" r="3"/><circle cx="1420" cy="160" r="3"/>
    <circle cx="1300" cy="200" r="3"/><circle cx="1340" cy="200" r="3"/><circle cx="1380" cy="200" r="3"/><circle cx="1420" cy="200" r="3"/>
    <circle cx="1300" cy="240" r="3"/><circle cx="1340" cy="240" r="3"/><circle cx="1380" cy="240" r="3"/><circle cx="1420" cy="240" r="3"/>
    <circle cx="1300" cy="280" r="3"/><circle cx="1340" cy="280" r="3"/><circle cx="1380" cy="280" r="3"/><circle cx="1420" cy="280" r="3"/>
    <circle cx="1300" cy="320" r="3"/><circle cx="1340" cy="320" r="3"/><circle cx="1380" cy="320" r="3"/><circle cx="1420" cy="320" r="3"/>
  </g>
  
  <path d="M1584 396 L1484 396 L1584 296" fill="#5e6ad2" opacity="0.06"/>
  <path d="M1584 396 L1534 396 L1584 346" fill="#5e6ad2" opacity="0.1"/>
</svg>
