<svg xmlns="http://www.w3.org/2000/svg" viewBox="0 0 900 600" fill="none">
  <rect width="900" height="600" fill="#08090a"/>
  <rect x="0" y="0" width="180" height="600" fill="#0f1011"/>
  <rect x="16" y="16" width="80" height="16" rx="4" fill="#5e6ad2" opacity="0.4"/>
  <rect x="16" y="56" width="148" height="28" rx="5" fill="#5e6ad2" opacity="0.1"/>
  <rect x="16" y="92" width="148" height="28" rx="5" fill="#ffffff" opacity="0.02"/>
  <rect x="16" y="128" width="148" height="28" rx="5" fill="#ffffff" opacity="0.02"/>
  <rect x="16" y="164" width="148" height="28" rx="5" fill="#ffffff" opacity="0.02"/>
  <rect x="200" y="16" width="680" height="36" rx="0" fill="transparent"/>
  <rect x="200" y="24" width="140" height="18" rx="4" fill="#f7f8f8" opacity="0.08"/>
  <rect x="200" y="72" width="150" height="60" rx="8" fill="#0f1011" stroke="#5e6ad2" stroke-opacity="0.12"/>
  <rect x="370" y="72" width="150" height="60" rx="8" fill="#0f1011" stroke="#ffffff" stroke-opacity="0.04"/>
  <rect x="540" y="72" width="150" height="60" rx="8" fill="#0f1011" stroke="#ffffff" stroke-opacity="0.04"/>
  <rect x="710" y="72" width="170" height="60" rx="8" fill="#0f1011" stroke="#ffffff" stroke-opacity="0.04"/>
  <rect x="200" y="152" width="680" height="300" rx="8" fill="#0f1011" stroke="#ffffff" stroke-opacity="0.03"/>
  <rect x="216" y="168" width="648" height="28" rx="4" fill="#ffffff" opacity="0.02"/>
  <rect x="216" y="204" width="648" height="1" fill="#ffffff" opacity="0.04"/>
  <rect x="216" y="218" width="100" height="8" rx="3" fill="#f7f8f8" opacity="0.07"/>
  <rect x="340" y="218" width="70" height="8" rx="3" fill="#a1a1aa" opacity="0.05"/>
  <rect x="450" y="216" width="50" height="16" rx="8" fill="#27a644" opacity="0.15"/>
  <rect x="216" y="242" width="648" height="1" fill="#ffffff" opacity="0.03"/>
  <rect x="216" y="256" width="120" height="8" rx="3" fill="#f7f8f8" opacity="0.07"/>
  <rect x="340" y="256" width="50" height="8" rx="3" fill="#a1a1aa" opacity="0.05"/>
  <rect x="450" y="254" width="50" height="16" rx="8" fill="#eab308" opacity="0.15"/>
  <rect x="200" y="470" width="680" height="100" rx="8" fill="#0f1011" stroke="#ffffff" stroke-opacity="0.03"/>
  <rect x="216" y="488" width="200" height="8" rx="3" fill="#a1a1aa" opacity="0.05"/>
  <rect x="216" y="506" width="320" height="6" rx="3" fill="#ffffff" opacity="0.02"/>
  <text x="450" y="570" text-anchor="middle" fill="#5e6ad2" font-family="system-ui" font-size="10" opacity="0.4">Dashboard Utama</text>
</svg>