<svg xmlns="http://www.w3.org/2000/svg" viewBox="0 0 900 600" fill="none">
  <rect width="900" height="600" fill="#08090a"/>
  <rect x="0" y="0" width="200" height="600" fill="#0f1011"/>
  <rect x="20" y="20" width="100" height="20" rx="4" fill="#5e6ad2" opacity="0.5"/>
  <rect x="20" y="70" width="160" height="32" rx="6" fill="#5e6ad2" opacity="0.12"/>
  <rect x="20" y="112" width="160" height="32" rx="6" fill="#ffffff" opacity="0.02"/>
  <rect x="20" y="154" width="160" height="32" rx="6" fill="#ffffff" opacity="0.02"/>
  <rect x="20" y="196" width="160" height="32" rx="6" fill="#ffffff" opacity="0.02"/>
  <rect x="20" y="238" width="160" height="32" rx="6" fill="#ffffff" opacity="0.02"/>
  <rect x="220" y="16" width="660" height="40" rx="0" fill="transparent"/>
  <rect x="240" y="24" width="160" height="20" rx="4" fill="#f7f8f8" opacity="0.1"/>
  <rect x="760" y="24" width="100" height="24" rx="6" fill="#5e6ad2" opacity="0.6"/>
  <rect x="240" y="80" width="140" height="70" rx="10" fill="#0f1011" stroke="#5e6ad2" stroke-opacity="0.15"/>
  <rect x="400" y="80" width="140" height="70" rx="10" fill="#0f1011" stroke="#ffffff" stroke-opacity="0.04"/>
  <rect x="560" y="80" width="140" height="70" rx="10" fill="#0f1011" stroke="#ffffff" stroke-opacity="0.04"/>
  <rect x="720" y="80" width="140" height="70" rx="10" fill="#0f1011" stroke="#ffffff" stroke-opacity="0.04"/>
  <text x="310" y="110" text-anchor="middle" fill="#7170ff" font-family="system-ui" font-size="22" font-weight="bold">148</text>
  <text x="310" y="130" text-anchor="middle" fill="#62666d" font-family="system-ui" font-size="10">Total Pengajuan</text>
  <rect x="240" y="170" width="640" height="380" rx="10" fill="#0f1011" stroke="#ffffff" stroke-opacity="0.04"/>
  <rect x="260" y="190" width="600" height="32" rx="4" fill="#ffffff" opacity="0.02"/>
  <rect x="260" y="232" width="600" height="1" fill="#ffffff" opacity="0.04"/>
  <rect x="260" y="248" width="120" height="10" rx="3" fill="#f7f8f8" opacity="0.08"/>
  <rect x="400" y="248" width="80" height="10" rx="3" fill="#a1a1aa" opacity="0.06"/>
  <rect x="520" y="248" width="60" height="20" rx="10" fill="#27a644" opacity="0.15"/>
  <rect x="620" y="248" width="80" height="10" rx="3" fill="#62666d" opacity="0.05"/>
  <rect x="260" y="278" width="600" height="1" fill="#ffffff" opacity="0.03"/>
  <rect x="260" y="294" width="140" height="10" rx="3" fill="#f7f8f8" opacity="0.08"/>
  <rect x="400" y="294" width="60" height="10" rx="3" fill="#a1a1aa" opacity="0.06"/>
  <rect x="520" y="294" width="60" height="20" rx="10" fill="#eab308" opacity="0.15"/>
  <rect x="620" y="294" width="80" height="10" rx="3" fill="#62666d" opacity="0.05"/>
  <rect x="260" y="324" width="600" height="1" fill="#ffffff" opacity="0.03"/>
  <rect x="260" y="340" width="100" height="10" rx="3" fill="#f7f8f8" opacity="0.08"/>
  <rect x="400" y="340" width="100" height="10" rx="3" fill="#a1a1aa" opacity="0.06"/>
  <rect x="520" y="340" width="60" height="20" rx="10" fill="#ef4444" opacity="0.15"/>
  <rect x="620" y="340" width="80" height="10" rx="3" fill="#62666d" opacity="0.05"/>
  <text x="450" y="556" text-anchor="middle" fill="#3a3d43" font-family="system-ui" font-size="11" letter-spacing="0.1em">SIPEKAD — SISTEM PENGAJUAN AKADEMIK</text>
</svg>