<svg xmlns="http://www.w3.org/2000/svg" viewBox="0 0 900 600" fill="none">
  <rect width="900" height="600" fill="#08090a"/>
  <rect x="0" y="0" width="180" height="600" fill="#0f1011"/>
  <rect x="16" y="16" width="80" height="16" rx="4" fill="#9d4edd" opacity="0.4"/>
  <rect x="16" y="56" width="148" height="28" rx="5" fill="#9d4edd" opacity="0.08"/>
  <rect x="16" y="92" width="148" height="28" rx="5" fill="#ffffff" opacity="0.02"/>
  <rect x="16" y="128" width="148" height="28" rx="5" fill="#ffffff" opacity="0.02"/>
  <rect x="16" y="164" width="148" height="28" rx="5" fill="#ffffff" opacity="0.02"/>
  <rect x="200" y="16" width="160" height="20" rx="4" fill="#f7f8f8" opacity="0.09"/>
  <rect x="200" y="60" width="150" height="70" rx="8" fill="#0f1011" stroke="#9d4edd" stroke-opacity="0.1"/>
  <rect x="370" y="60" width="150" height="70" rx="8" fill="#0f1011" stroke="#ffffff" stroke-opacity="0.04"/>
  <rect x="540" y="60" width="150" height="70" rx="8" fill="#0f1011" stroke="#ffffff" stroke-opacity="0.04"/>
  <rect x="710" y="60" width="170" height="70" rx="8" fill="#0f1011" stroke="#ffffff" stroke-opacity="0.04"/>
  <text x="275" y="94" text-anchor="middle" fill="#c084fc" font-family="system-ui" font-size="20" font-weight="bold">247</text>
  <text x="275" y="112" text-anchor="middle" fill="#62666d" font-family="system-ui" font-size="9">Pegawai</text>
  <rect x="200" y="150" width="350" height="220" rx="8" fill="#0f1011" stroke="#ffffff" stroke-opacity="0.03"/>
  <text x="216" y="174" fill="#a1a1aa" font-family="system-ui" font-size="10">Distribusi</text>
  <rect x="216" y="190" width="180" height="6" rx="3" fill="#9d4edd" opacity="0.25"/>
  <rect x="216" y="204" width="140" height="6" rx="3" fill="#5e6ad2" opacity="0.2"/>
  <rect x="216" y="218" width="110" height="6" rx="3" fill="#7170ff" opacity="0.15"/>
  <rect x="216" y="232" width="80" height="6" rx="3" fill="#a78bfa" opacity="0.12"/>
  <rect x="216" y="260" width="318" height="90" rx="6" fill="#ffffff" opacity="0.01"/>
  <rect x="570" y="150" width="310" height="220" rx="8" fill="#0f1011" stroke="#ffffff" stroke-opacity="0.03"/>
  <text x="586" y="174" fill="#a1a1aa" font-family="system-ui" font-size="10">Trend Kenaikan</text>
  <polyline points="590,280 630,260 670,270 710,240 750,250 790,220 830,230 860,210" fill="none" stroke="#9d4edd" stroke-opacity="0.4" stroke-width="2"/>
  <rect x="200" y="390" width="680" height="170" rx="8" fill="#0f1011" stroke="#ffffff" stroke-opacity="0.03"/>
  <text x="216" y="414" fill="#a1a1aa" font-family="system-ui" font-size="10">Tabel Pegawai</text>
  <rect x="216" y="430" width="648" height="1" fill="#ffffff" opacity="0.04"/>
  <rect x="216" y="446" width="80" height="8" rx="3" fill="#f7f8f8" opacity="0.07"/>
  <rect x="320" y="446" width="120" height="8" rx="3" fill="#a1a1aa" opacity="0.05"/>
  <rect x="470" y="444" width="50" height="16" rx="8" fill="#9d4edd" opacity="0.12"/>
  <rect x="216" y="470" width="648" height="1" fill="#ffffff" opacity="0.03"/>
  <rect x="216" y="484" width="90" height="8" rx="3" fill="#f7f8f8" opacity="0.06"/>
  <rect x="320" y="484" width="100" height="8" rx="3" fill="#a1a1aa" opacity="0.04"/>
  <rect x="470" y="482" width="50" height="16" rx="8" fill="#5e6ad2" opacity="0.1"/>
  <text x="450" y="570" text-anchor="middle" fill="#9d4edd" font-family="system-ui" font-size="10" opacity="0.35">Overview Statistik</text>
</svg>