<svg xmlns="http://www.w3.org/2000/svg" viewBox="0 0 900 600" fill="none">
  <rect width="900" height="600" fill="#08090a"/>
  <rect x="0" y="0" width="200" height="600" fill="#0f1011"/>
  <rect x="20" y="20" width="100" height="20" rx="4" fill="#9d4edd" opacity="0.5"/>
  <rect x="20" y="70" width="160" height="32" rx="6" fill="#9d4edd" opacity="0.1"/>
  <rect x="20" y="112" width="160" height="32" rx="6" fill="#ffffff" opacity="0.02"/>
  <rect x="20" y="154" width="160" height="32" rx="6" fill="#ffffff" opacity="0.02"/>
  <rect x="20" y="196" width="160" height="32" rx="6" fill="#ffffff" opacity="0.02"/>
  <rect x="240" y="20" width="160" height="24" rx="4" fill="#f7f8f8" opacity="0.1"/>
  <rect x="240" y="70" width="140" height="80" rx="10" fill="#0f1011" stroke="#9d4edd" stroke-opacity="0.12"/>
  <rect x="400" y="70" width="140" height="80" rx="10" fill="#0f1011" stroke="#ffffff" stroke-opacity="0.04"/>
  <rect x="560" y="70" width="140" height="80" rx="10" fill="#0f1011" stroke="#ffffff" stroke-opacity="0.04"/>
  <rect x="720" y="70" width="140" height="80" rx="10" fill="#0f1011" stroke="#ffffff" stroke-opacity="0.04"/>
  <text x="310" y="106" text-anchor="middle" fill="#c084fc" font-family="system-ui" font-size="26" font-weight="bold">247</text>
  <text x="310" y="128" text-anchor="middle" fill="#62666d" font-family="system-ui" font-size="10">Total Pegawai</text>
  <rect x="240" y="170" width="370" height="240" rx="10" fill="#0f1011" stroke="#ffffff" stroke-opacity="0.04"/>
  <text x="260" y="196" fill="#a1a1aa" font-family="system-ui" font-size="11">Distribusi Jabatan</text>
  <rect x="260" y="216" width="200" height="8" rx="4" fill="#9d4edd" opacity="0.3"/>
  <rect x="260" y="234" width="160" height="8" rx="4" fill="#5e6ad2" opacity="0.25"/>
  <rect x="260" y="252" width="120" height="8" rx="4" fill="#7170ff" opacity="0.2"/>
  <rect x="260" y="270" width="100" height="8" rx="4" fill="#a78bfa" opacity="0.15"/>
  <rect x="260" y="300" width="330" height="90" rx="6" fill="#ffffff" opacity="0.01"/>
  <rect x="280" y="320" width="290" height="10" rx="3" fill="#f7f8f8" opacity="0.06"/>
  <rect x="280" y="340" width="250" height="8" rx="3" fill="#a1a1aa" opacity="0.04"/>
  <rect x="280" y="360" width="270" height="8" rx="3" fill="#a1a1aa" opacity="0.03"/>
  <rect x="630" y="170" width="270" height="240" rx="10" fill="#0f1011" stroke="#ffffff" stroke-opacity="0.04"/>
  <text x="650" y="196" fill="#a1a1aa" font-family="system-ui" font-size="11">Kenaikan Pangkat</text>
  <rect x="650" y="216" width="230" height="100" rx="6" fill="#ffffff" opacity="0.01"/>
  <circle cx="765" cy="266" r="36" fill="none" stroke="#9d4edd" stroke-opacity="0.2" stroke-width="6"/>
  <circle cx="765" cy="266" r="36" fill="none" stroke="#c084fc" stroke-opacity="0.4" stroke-width="6" stroke-dasharray="140 86" transform="rotate(-90 765 266)"/>
  <text x="765" y="270" text-anchor="middle" fill="#f7f8f8" font-family="system-ui" font-size="14" font-weight="bold">62%</text>
  <rect x="650" y="330" width="230" height="30" rx="4" fill="#ffffff" opacity="0.02"/>
  <rect x="650" y="370" width="230" height="30" rx="4" fill="#ffffff" opacity="0.02"/>
  <rect x="240" y="430" width="660" height="120" rx="10" fill="#0f1011" stroke="#ffffff" stroke-opacity="0.04"/>
  <text x="260" y="456" fill="#a1a1aa" font-family="system-ui" font-size="11">Profil Pegawai Terbaru</text>
  <rect x="260" y="476" width="180" height="60" rx="6" fill="#ffffff" opacity="0.02"/>
  <rect x="450" y="476" width="180" height="60" rx="6" fill="#ffffff" opacity="0.02"/>
  <rect x="640" y="476" width="180" height="60" rx="6" fill="#ffffff" opacity="0.02"/>
  <text x="450" y="576" text-anchor="middle" fill="#3a3d43" font-family="system-ui" font-size="11" letter-spacing="0.1em">DASHBOARD KEPEGAWAIAN &amp; JABATAN FUNGSIONAL</text>
</svg>